<!DOCTYPE svg PUBLIC "-//W3C//DTD SVG 1.1//EN" "http://www.w3.org/Graphics/SVG/1.1/DTD/svg11.dtd">
<svg height="582" width="832" xmlns="http://www.w3.org/2000/svg" xmlns:xlink= "http://www.w3.org/1999/xlink"><circle cx="41.000000" cy="91.000000" r="40.000000" fill="rgb(255,255,255)" stroke="rgb(255,255,255)" stroke-width="1" /><circle cx="41.000000" cy="91.000000" r="40.000000" fill="none" stroke="rgb(0,0,0)" stroke-width="1" /><circle cx="41.000000" cy="191.000000" r="40.000000" fill="rgb(255,255,255)" stroke="rgb(255,255,255)" stroke-width="1" /><circle cx="41.000000" cy="191.000000" r="40.000000" fill="none" stroke="rgb(0,0,0)" stroke-width="1" /><circle cx="41.000000" cy="291.000000" r="40.000000" fill="rgb(255,255,255)" stroke="rgb(255,255,255)" stroke-width="1" /><circle cx="41.000000" cy="291.000000" r="40.000000" fill="none" stroke="rgb(0,0,0)" stroke-width="1" /><circle cx="41.000000" cy="391.000000" r="40.000000" fill="rgb(255,255,255)" stroke="rgb(255,255,255)" stroke-width="1" /><circle cx="41.000000" cy="391.000000" r="40.000000" fill="none" stroke="rgb(0,0,0)" stroke-width="1" /><circle cx="41.000000" cy="491.000000" r="40.000000" fill="rgb(255,255,255)" stroke="rgb(255,255,255)" stroke-width="1" /><circle cx="41.000000" cy="491.000000" r="40.000000" fill="none" stroke="rgb(0,0,0)" stroke-width="1" /><circle cx="291.000000" cy="41.000000" r="40.000000" fill="rgb(255,255,255)" stroke="rgb(255,255,255)" stroke-width="1" /><circle cx="291.000000" cy="41.000000" r="40.000000" fill="none" stroke="rgb(0,0,0)" stroke-width="1" /><line x1="81.000000" y1="91.000000" x2="251.000000" y2="41.000000" stroke="rgb(0,0,0)" stroke-width="1" /><line x1="81.000000" y1="191.000000" x2="251.000000" y2="41.000000" stroke="rgb(0,0,0)" stroke-width="1" /><line x1="81.000000" y1="291.000000" x2="251.000000" y2="41.000000" stroke="rgb(0,0,0)" stroke-width="1" /><line x1="81.000000" y1="391.000000" x2="251.000000" y2="41.000000" stroke="rgb(0,0,0)" stroke-width="1" /><line x1="81.000000" y1="491.000000" x2="251.000000" y2="41.000000" stroke="rgb(0,0,0)" stroke-width="1" /><circle cx="291.000000" cy="141.000000" r="40.000000" fill="rgb(255,255,255)" stroke="rgb(255,255,255)" stroke-width="1" /><circle cx="291.000000" cy="141.000000" r="40.000000" fill="none" stroke="rgb(0,0,0)" stroke-width="1" /><line x1="81.000000" y1="91.000000" x2="251.000000" y2="141.000000" stroke="rgb(0,0,0)" stroke-width="1" /><line x1="81.000000" y1="191.000000" x2="251.000000" y2="141.000000" stroke="rgb(0,0,0)" stroke-width="1" /><line x1="81.000000" y1="291.000000" x2="251.000000" y2="141.000000" stroke="rgb(0,0,0)" stroke-width="1" /><line x1="81.000000" y1="391.000000" x2="251.000000" y2="141.000000" stroke="rgb(0,0,0)" stroke-width="1" /><line x1="81.000000" y1="491.000000" x2="251.000000" y2="141.000000" stroke="rgb(0,0,0)" stroke-width="1" /><circle cx="291.000000" cy="241.000000" r="40.000000" fill="rgb(255,255,255)" stroke="rgb(255,255,255)" stroke-width="1" /><circle cx="291.000000" cy="241.000000" r="40.000000" fill="none" stroke="rgb(0,0,0)" stroke-width="1" /><line x1="81.000000" y1="91.000000" x2="251.000000" y2="241.000000" stroke="rgb(0,0,0)" stroke-width="1" /><line x1="81.000000" y1="191.000000" x2="251.000000" y2="241.000000" stroke="rgb(0,0,0)" stroke-width="1" /><line x1="81.000000" y1="291.000000" x2="251.000000" y2="241.000000" stroke="rgb(0,0,0)" stroke-width="1" /><line x1="81.000000" y1="391.000000" x2="251.000000" y2="241.000000" stroke="rgb(0,0,0)" stroke-width="1" /><line x1="81.000000" y1="491.000000" x2="251.000000" y2="241.000000" stroke="rgb(0,0,0)" stroke-width="1" /><circle cx="291.000000" cy="341.000000" r="40.000000" fill="rgb(255,255,255)" stroke="rgb(255,255,255)" stroke-width="1" /><circle cx="291.000000" cy="341.000000" r="40.000000" fill="none" stroke="rgb(0,0,0)" stroke-width="1" /><line x1="81.000000" y1="91.000000" x2="251.000000" y2="341.000000" stroke="rgb(0,0,0)" stroke-width="1" /><line x1="81.000000" y1="191.000000" x2="251.000000" y2="341.000000" stroke="rgb(0,0,0)" stroke-width="1" /><line x1="81.000000" y1="291.000000" x2="251.000000" y2="341.000000" stroke="rgb(0,0,0)" stroke-width="1" /><line x1="81.000000" y1="391.000000" x2="251.000000" y2="341.000000" stroke="rgb(0,0,0)" stroke-width="1" /><line x1="81.000000" y1="491.000000" x2="251.000000" y2="341.000000" stroke="rgb(0,0,0)" stroke-width="1" /><circle cx="291.000000" cy="441.000000" r="40.000000" fill="rgb(255,255,255)" stroke="rgb(255,255,255)" stroke-width="1" /><circle cx="291.000000" cy="441.000000" r="40.000000" fill="none" stroke="rgb(0,0,0)" stroke-width="1" /><line x1="81.000000" y1="91.000000" x2="251.000000" y2="441.000000" stroke="rgb(0,0,0)" stroke-width="1" /><line x1="81.000000" y1="191.000000" x2="251.000000" y2="441.000000" stroke="rgb(0,0,0)" stroke-width="1" /><line x1="81.000000" y1="291.000000" x2="251.000000" y2="441.000000" stroke="rgb(0,0,0)" stroke-width="1" /><line x1="81.000000" y1="391.000000" x2="251.000000" y2="441.000000" stroke="rgb(0,0,0)" stroke-width="1" /><line x1="81.000000" y1="491.000000" x2="251.000000" y2="441.000000" stroke="rgb(0,0,0)" stroke-width="1" /><circle cx="291.000000" cy="541.000000" r="40.000000" fill="rgb(255,255,255)" stroke="rgb(255,255,255)" stroke-width="1" /><circle cx="291.000000" cy="541.000000" r="40.000000" fill="none" stroke="rgb(0,0,0)" stroke-width="1" /><line x1="81.000000" y1="91.000000" x2="251.000000" y2="541.000000" stroke="rgb(0,0,0)" stroke-width="1" /><line x1="81.000000" y1="191.000000" x2="251.000000" y2="541.000000" stroke="rgb(0,0,0)" stroke-width="1" /><line x1="81.000000" y1="291.000000" x2="251.000000" y2="541.000000" stroke="rgb(0,0,0)" stroke-width="1" /><line x1="81.000000" y1="391.000000" x2="251.000000" y2="541.000000" stroke="rgb(0,0,0)" stroke-width="1" /><line x1="81.000000" y1="491.000000" x2="251.000000" y2="541.000000" stroke="rgb(0,0,0)" stroke-width="1" /><circle cx="541.000000" cy="41.000000" r="40.000000" fill="rgb(255,255,255)" stroke="rgb(255,255,255)" stroke-width="1" /><circle cx="541.000000" cy="41.000000" r="40.000000" fill="none" stroke="rgb(0,0,0)" stroke-width="1" /><line x1="331.000000" y1="41.000000" x2="501.000000" y2="41.000000" stroke="rgb(0,0,0)" stroke-width="1" /><line x1="331.000000" y1="141.000000" x2="501.000000" y2="41.000000" stroke="rgb(0,0,0)" stroke-width="1" /><line x1="331.000000" y1="241.000000" x2="501.000000" y2="41.000000" stroke="rgb(0,0,0)" stroke-width="1" /><line x1="331.000000" y1="341.000000" x2="501.000000" y2="41.000000" stroke="rgb(0,0,0)" stroke-width="1" /><line x1="331.000000" y1="441.000000" x2="501.000000" y2="41.000000" stroke="rgb(0,0,0)" stroke-width="1" /><line x1="331.000000" y1="541.000000" x2="501.000000" y2="41.000000" stroke="rgb(0,0,0)" stroke-width="1" /><circle cx="541.000000" cy="141.000000" r="40.000000" fill="rgb(255,255,255)" stroke="rgb(255,255,255)" stroke-width="1" /><circle cx="541.000000" cy="141.000000" r="40.000000" fill="none" stroke="rgb(0,0,0)" stroke-width="1" /><line x1="331.000000" y1="41.000000" x2="501.000000" y2="141.000000" stroke="rgb(0,0,0)" stroke-width="1" /><line x1="331.000000" y1="141.000000" x2="501.000000" y2="141.000000" stroke="rgb(0,0,0)" stroke-width="1" /><line x1="331.000000" y1="241.000000" x2="501.000000" y2="141.000000" stroke="rgb(0,0,0)" stroke-width="1" /><line x1="331.000000" y1="341.000000" x2="501.000000" y2="141.000000" stroke="rgb(0,0,0)" stroke-width="1" /><line x1="331.000000" y1="441.000000" x2="501.000000" y2="141.000000" stroke="rgb(0,0,0)" stroke-width="1" /><line x1="331.000000" y1="541.000000" x2="501.000000" y2="141.000000" stroke="rgb(0,0,0)" stroke-width="1" /><circle cx="541.000000" cy="241.000000" r="40.000000" fill="rgb(255,255,255)" stroke="rgb(255,255,255)" stroke-width="1" /><circle cx="541.000000" cy="241.000000" r="40.000000" fill="none" stroke="rgb(0,0,0)" stroke-width="1" /><line x1="331.000000" y1="41.000000" x2="501.000000" y2="241.000000" stroke="rgb(0,0,0)" stroke-width="1" /><line x1="331.000000" y1="141.000000" x2="501.000000" y2="241.000000" stroke="rgb(0,0,0)" stroke-width="1" /><line x1="331.000000" y1="241.000000" x2="501.000000" y2="241.000000" stroke="rgb(0,0,0)" stroke-width="1" /><line x1="331.000000" y1="341.000000" x2="501.000000" y2="241.000000" stroke="rgb(0,0,0)" stroke-width="1" /><line x1="331.000000" y1="441.000000" x2="501.000000" y2="241.000000" stroke="rgb(0,0,0)" stroke-width="1" /><line x1="331.000000" y1="541.000000" x2="501.000000" y2="241.000000" stroke="rgb(0,0,0)" stroke-width="1" /><circle cx="541.000000" cy="341.000000" r="40.000000" fill="rgb(255,255,255)" stroke="rgb(255,255,255)" stroke-width="1" /><circle cx="541.000000" cy="341.000000" r="40.000000" fill="none" stroke="rgb(0,0,0)" stroke-width="1" /><line x1="331.000000" y1="41.000000" x2="501.000000" y2="341.000000" stroke="rgb(0,0,0)" stroke-width="1" /><line x1="331.000000" y1="141.000000" x2="501.000000" y2="341.000000" stroke="rgb(0,0,0)" stroke-width="1" /><line x1="331.000000" y1="241.000000" x2="501.000000" y2="341.000000" stroke="rgb(0,0,0)" stroke-width="1" /><line x1="331.000000" y1="341.000000" x2="501.000000" y2="341.000000" stroke="rgb(0,0,0)" stroke-width="1" /><line x1="331.000000" y1="441.000000" x2="501.000000" y2="341.000000" stroke="rgb(0,0,0)" stroke-width="1" /><line x1="331.000000" y1="541.000000" x2="501.000000" y2="341.000000" stroke="rgb(0,0,0)" stroke-width="1" /><circle cx="541.000000" cy="441.000000" r="40.000000" fill="rgb(255,255,255)" stroke="rgb(255,255,255)" stroke-width="1" /><circle cx="541.000000" cy="441.000000" r="40.000000" fill="none" stroke="rgb(0,0,0)" stroke-width="1" /><line x1="331.000000" y1="41.000000" x2="501.000000" y2="441.000000" stroke="rgb(0,0,0)" stroke-width="1" /><line x1="331.000000" y1="141.000000" x2="501.000000" y2="441.000000" stroke="rgb(0,0,0)" stroke-width="1" /><line x1="331.000000" y1="241.000000" x2="501.000000" y2="441.000000" stroke="rgb(0,0,0)" stroke-width="1" /><line x1="331.000000" y1="341.000000" x2="501.000000" y2="441.000000" stroke="rgb(0,0,0)" stroke-width="1" /><line x1="331.000000" y1="441.000000" x2="501.000000" y2="441.000000" stroke="rgb(0,0,0)" stroke-width="1" /><line x1="331.000000" y1="541.000000" x2="501.000000" y2="441.000000" stroke="rgb(0,0,0)" stroke-width="1" /><circle cx="541.000000" cy="541.000000" r="40.000000" fill="rgb(255,255,255)" stroke="rgb(255,255,255)" stroke-width="1" /><circle cx="541.000000" cy="541.000000" r="40.000000" fill="none" stroke="rgb(0,0,0)" stroke-width="1" /><line x1="331.000000" y1="41.000000" x2="501.000000" y2="541.000000" stroke="rgb(0,0,0)" stroke-width="1" /><line x1="331.000000" y1="141.000000" x2="501.000000" y2="541.000000" stroke="rgb(0,0,0)" stroke-width="1" /><line x1="331.000000" y1="241.000000" x2="501.000000" y2="541.000000" stroke="rgb(0,0,0)" stroke-width="1" /><line x1="331.000000" y1="341.000000" x2="501.000000" y2="541.000000" stroke="rgb(0,0,0)" stroke-width="1" /><line x1="331.000000" y1="441.000000" x2="501.000000" y2="541.000000" stroke="rgb(0,0,0)" stroke-width="1" /><line x1="331.000000" y1="541.000000" x2="501.000000" y2="541.000000" stroke="rgb(0,0,0)" stroke-width="1" /><circle cx="791.000000" cy="91.000000" r="40.000000" fill="rgb(255,255,255)" stroke="rgb(255,255,255)" stroke-width="1" /><circle cx="791.000000" cy="91.000000" r="40.000000" fill="none" stroke="rgb(0,0,0)" stroke-width="1" /><line x1="581.000000" y1="41.000000" x2="751.000000" y2="91.000000" stroke="rgb(0,0,0)" stroke-width="1" /><line x1="581.000000" y1="141.000000" x2="751.000000" y2="91.000000" stroke="rgb(0,0,0)" stroke-width="1" /><line x1="581.000000" y1="241.000000" x2="751.000000" y2="91.000000" stroke="rgb(0,0,0)" stroke-width="1" /><line x1="581.000000" y1="341.000000" x2="751.000000" y2="91.000000" stroke="rgb(0,0,0)" stroke-width="1" /><line x1="581.000000" y1="441.000000" x2="751.000000" y2="91.000000" stroke="rgb(0,0,0)" stroke-width="1" /><line x1="581.000000" y1="541.000000" x2="751.000000" y2="91.000000" stroke="rgb(0,0,0)" stroke-width="1" /><circle cx="791.000000" cy="191.000000" r="40.000000" fill="rgb(255,255,255)" stroke="rgb(255,255,255)" stroke-width="1" /><circle cx="791.000000" cy="191.000000" r="40.000000" fill="none" stroke="rgb(0,0,0)" stroke-width="1" /><line x1="581.000000" y1="41.000000" x2="751.000000" y2="191.000000" stroke="rgb(0,0,0)" stroke-width="1" /><line x1="581.000000" y1="141.000000" x2="751.000000" y2="191.000000" stroke="rgb(0,0,0)" stroke-width="1" /><line x1="581.000000" y1="241.000000" x2="751.000000" y2="191.000000" stroke="rgb(0,0,0)" stroke-width="1" /><line x1="581.000000" y1="341.000000" x2="751.000000" y2="191.000000" stroke="rgb(0,0,0)" stroke-width="1" /><line x1="581.000000" y1="441.000000" x2="751.000000" y2="191.000000" stroke="rgb(0,0,0)" stroke-width="1" /><line x1="581.000000" y1="541.000000" x2="751.000000" y2="191.000000" stroke="rgb(0,0,0)" stroke-width="1" /><circle cx="791.000000" cy="291.000000" r="40.000000" fill="rgb(255,255,255)" stroke="rgb(255,255,255)" stroke-width="1" /><circle cx="791.000000" cy="291.000000" r="40.000000" fill="none" stroke="rgb(0,0,0)" stroke-width="1" /><line x1="581.000000" y1="41.000000" x2="751.000000" y2="291.000000" stroke="rgb(0,0,0)" stroke-width="1" /><line x1="581.000000" y1="141.000000" x2="751.000000" y2="291.000000" stroke="rgb(0,0,0)" stroke-width="1" /><line x1="581.000000" y1="241.000000" x2="751.000000" y2="291.000000" stroke="rgb(0,0,0)" stroke-width="1" /><line x1="581.000000" y1="341.000000" x2="751.000000" y2="291.000000" stroke="rgb(0,0,0)" stroke-width="1" /><line x1="581.000000" y1="441.000000" x2="751.000000" y2="291.000000" stroke="rgb(0,0,0)" stroke-width="1" /><line x1="581.000000" y1="541.000000" x2="751.000000" y2="291.000000" stroke="rgb(0,0,0)" stroke-width="1" /><circle cx="791.000000" cy="391.000000" r="40.000000" fill="rgb(255,255,255)" stroke="rgb(255,255,255)" stroke-width="1" /><circle cx="791.000000" cy="391.000000" r="40.000000" fill="none" stroke="rgb(0,0,0)" stroke-width="1" /><line x1="581.000000" y1="41.000000" x2="751.000000" y2="391.000000" stroke="rgb(0,0,0)" stroke-width="1" /><line x1="581.000000" y1="141.000000" x2="751.000000" y2="391.000000" stroke="rgb(0,0,0)" stroke-width="1" /><line x1="581.000000" y1="241.000000" x2="751.000000" y2="391.000000" stroke="rgb(0,0,0)" stroke-width="1" /><line x1="581.000000" y1="341.000000" x2="751.000000" y2="391.000000" stroke="rgb(0,0,0)" stroke-width="1" /><line x1="581.000000" y1="441.000000" x2="751.000000" y2="391.000000" stroke="rgb(0,0,0)" stroke-width="1" /><line x1="581.000000" y1="541.000000" x2="751.000000" y2="391.000000" stroke="rgb(0,0,0)" stroke-width="1" /><circle cx="791.000000" cy="491.000000" r="40.000000" fill="rgb(255,255,255)" stroke="rgb(255,255,255)" stroke-width="1" /><circle cx="791.000000" cy="491.000000" r="40.000000" fill="none" stroke="rgb(0,0,0)" stroke-width="1" /><line x1="581.000000" y1="41.000000" x2="751.000000" y2="491.000000" stroke="rgb(0,0,0)" stroke-width="1" /><line x1="581.000000" y1="141.000000" x2="751.000000" y2="491.000000" stroke="rgb(0,0,0)" stroke-width="1" /><line x1="581.000000" y1="241.000000" x2="751.000000" y2="491.000000" stroke="rgb(0,0,0)" stroke-width="1" /><line x1="581.000000" y1="341.000000" x2="751.000000" y2="491.000000" stroke="rgb(0,0,0)" stroke-width="1" /><line x1="581.000000" y1="441.000000" x2="751.000000" y2="491.000000" stroke="rgb(0,0,0)" stroke-width="1" /><line x1="581.000000" y1="541.000000" x2="751.000000" y2="491.000000" stroke="rgb(0,0,0)" stroke-width="1" /></svg>